# xmcd CD database file
#
# Track frame offsets:
#	150
#	22009
#	54933
#	76097
#	96068
#	126700
#	161334
#	188760
#
# Disc length: 2820 seconds
#
# Revision: 0
# Processed by: cddbd v1.5.2PL0 Copyright (c) Steve Scherf et al.
# Submitted via: CDex 1.70beta2
#
DISCID=5c0b0208
DTITLE=Ellis Marsalis and Makoto Ozone - Pure Pleasure for The Piano
DYEAR=2012
DGENRE=Jazz
TTITLE0=Confusing Blues
TTITLE1=Do You Know What It Means to Miss New Orleans?
TTITLE2=Sweet Georgia Brown
TTITLE3=A Moment Alone (Ellis Solo)
TTITLE4=Emily
TTITLE5=Longing for the Past (Makoto Solo)
TTITLE6=What Is This Thing Called Love
TTITLE7=Struttin’ with Some Barbecue
EXTD=YEAR: 2012
EXTT0=
EXTT1=
EXTT2=
EXTT3=
EXTT4=
EXTT5=
EXTT6=
EXTT7=
PLAYORDER=
